<svg width="32" height="32" viewBox="0 0 32 32" fill="none" xmlns="http://www.w3.org/2000/svg">
<path d="M11.9999 24H19.9999C20.3777 24 20.6946 23.872 20.9506 23.616C21.2057 23.3609 21.3333 23.0445 21.3333 22.6667C21.3333 22.2889 21.2057 21.9725 20.9506 21.7174C20.6946 21.4614 20.3777 21.3334 19.9999 21.3334H11.9999C11.6221 21.3334 11.3057 21.4614 11.0506 21.7174C10.7946 21.9725 10.6666 22.2889 10.6666 22.6667C10.6666 23.0445 10.7946 23.3609 11.0506 23.616C11.3057 23.872 11.6221 24 11.9999 24ZM11.9999 18.6667H19.9999C20.3777 18.6667 20.6946 18.5387 20.9506 18.2827C21.2057 18.0276 21.3333 17.7111 21.3333 17.3334C21.3333 16.9556 21.2057 16.6387 20.9506 16.3827C20.6946 16.1276 20.3777 16 19.9999 16H11.9999C11.6221 16 11.3057 16.1276 11.0506 16.3827C10.7946 16.6387 10.6666 16.9556 10.6666 17.3334C10.6666 17.7111 10.7946 18.0276 11.0506 18.2827C11.3057 18.5387 11.6221 18.6667 11.9999 18.6667ZM7.99992 29.3334C7.26659 29.3334 6.63903 29.0725 6.11725 28.5507C5.59459 28.028 5.33325 27.4 5.33325 26.6667V5.33335C5.33325 4.60002 5.59459 3.97202 6.11725 3.44935C6.63903 2.92758 7.26659 2.66669 7.99992 2.66669H17.5666C17.9221 2.66669 18.2613 2.73335 18.5839 2.86669C18.9057 3.00002 19.1888 3.18891 19.4333 3.43335L25.8999 9.90002C26.1444 10.1445 26.3333 10.4276 26.4666 10.7494C26.5999 11.072 26.6666 11.4111 26.6666 11.7667V26.6667C26.6666 27.4 26.4057 28.028 25.8839 28.5507C25.3613 29.0725 24.7333 29.3334 23.9999 29.3334H7.99992ZM17.3333 10.6667C17.3333 11.0445 17.4613 11.3609 17.7173 11.616C17.9724 11.872 18.2888 12 18.6666 12H23.9999L17.3333 5.33335V10.6667Z" fill="#2C6975" fill-opacity="0.7"/>
</svg>
