<svg width="20" height="22" viewBox="0 0 20 22" fill="none" xmlns="http://www.w3.org/2000/svg">
<path d="M15.5556 8.8H4.44444V6.6H15.5556V8.8ZM15.5556 13.2H4.44444V11H15.5556V13.2ZM12.2222 17.6H4.44444V15.4H12.2222V17.6ZM10 2.2C10.2947 2.2 10.5773 2.31589 10.7857 2.52218C10.994 2.72847 11.1111 3.00826 11.1111 3.3C11.1111 3.59174 10.994 3.87153 10.7857 4.07782C10.5773 4.28411 10.2947 4.4 10 4.4C9.70532 4.4 9.4227 4.28411 9.21433 4.07782C9.00595 3.87153 8.88889 3.59174 8.88889 3.3C8.88889 3.00826 9.00595 2.72847 9.21433 2.52218C9.4227 2.31589 9.70532 2.2 10 2.2V2.2ZM17.7778 2.2H13.1333C12.6667 0.924 11.4444 0 10 0C8.55556 0 7.33333 0.924 6.86667 2.2H2.22222C1.63285 2.2 1.06762 2.43179 0.650874 2.84437C0.234126 3.25695 0 3.81652 0 4.4V19.8C0 20.3835 0.234126 20.9431 0.650874 21.3556C1.06762 21.7682 1.63285 22 2.22222 22H17.7778C18.3671 22 18.9324 21.7682 19.3491 21.3556C19.7659 20.9431 20 20.3835 20 19.8V4.4C20 3.81652 19.7659 3.25695 19.3491 2.84437C18.9324 2.43179 18.3671 2.2 17.7778 2.2Z" fill="#686B6F"/>
</svg>
