<svg width="30" height="30" viewBox="0 0 30 30" fill="none" xmlns="http://www.w3.org/2000/svg">
<path d="M25.1167 2.49999C25.1167 2.27898 25.0289 2.06701 24.8726 1.91073C24.7163 1.75445 24.5044 1.66666 24.2834 1.66666H5.95003C5.72902 1.66666 5.51706 1.75445 5.36078 1.91073C5.2045 2.06701 5.1167 2.27898 5.1167 2.49999V3.33332H25.1167V2.49999Z" fill="#2C6975" fill-opacity="0.7"/>
<path d="M26.7667 5.83333C26.7667 5.61232 26.6789 5.40036 26.5226 5.24408C26.3663 5.0878 26.1544 5 25.9334 5H4.26668C4.04567 5 3.83371 5.0878 3.67743 5.24408C3.52115 5.40036 3.43335 5.61232 3.43335 5.83333V6.66667H26.7667V5.83333Z" fill="#2C6975" fill-opacity="0.7"/>
<path d="M26.7667 8.33334H3.23341C2.81791 8.33334 2.41942 8.4984 2.12561 8.79221C1.83181 9.08602 1.66675 9.4845 1.66675 9.90001V25.1C1.66675 25.5155 1.83181 25.914 2.12561 26.2078C2.41942 26.5016 2.81791 26.6667 3.23341 26.6667H26.7667C27.1823 26.6667 27.5807 26.5016 27.8745 26.2078C28.1684 25.914 28.3334 25.5155 28.3334 25.1V9.90001C28.3334 9.4845 28.1684 9.08602 27.8745 8.79221C27.5807 8.4984 27.1823 8.33334 26.7667 8.33334ZM7.13341 11.2083C7.62787 11.2083 8.11122 11.355 8.52234 11.6297C8.93346 11.9044 9.25389 12.2948 9.44311 12.7516C9.63233 13.2085 9.68184 13.7111 9.58538 14.1961C9.48891 14.681 9.25081 15.1265 8.90118 15.4761C8.55155 15.8257 8.10609 16.0638 7.62114 16.1603C7.13619 16.2568 6.63352 16.2073 6.17671 16.018C5.71989 15.8288 5.32944 15.5084 5.05474 15.0973C4.78004 14.6861 4.63341 14.2028 4.63341 13.7083C4.63341 13.0453 4.89681 12.4094 5.36565 11.9406C5.83449 11.4717 6.47037 11.2083 7.13341 11.2083ZM25.0001 23.3333H5.00008L11.2167 17.1083C11.3276 16.9984 11.4773 16.9367 11.6334 16.9367C11.7895 16.9367 11.9393 16.9984 12.0501 17.1083L15.1167 20.175L19.3417 15.8333C19.4526 15.7234 19.6023 15.6617 19.7584 15.6617C19.9145 15.6617 20.0643 15.7234 20.1751 15.8333L25.0001 20.6583V23.3333Z" fill="#2C6975" fill-opacity="0.7"/>
</svg>
