<svg width="26" height="26" viewBox="0 0 26 26" fill="none" xmlns="http://www.w3.org/2000/svg">
<path d="M13 0.5C6.1075 0.5 0.5 6.1075 0.5 13C0.5 19.8925 6.1075 25.5 13 25.5C19.8925 25.5 25.5 19.8925 25.5 13C25.5 6.1075 19.8925 0.5 13 0.5ZM14.25 20.5H11.75V18H14.25V20.5ZM15.47 14.3937C15.225 14.5912 14.9888 14.78 14.8013 14.9675C14.2913 15.4763 14.2513 15.9387 14.25 15.9587V16.125H11.75V15.9163C11.75 15.7688 11.7863 14.445 13.0325 13.1988C13.2762 12.955 13.5787 12.7075 13.8962 12.45C14.8138 11.7063 15.4162 11.1637 15.4162 10.4162C15.4017 9.78477 15.1406 9.18406 14.6888 8.74265C14.237 8.30123 13.6304 8.05418 12.9988 8.05434C12.3671 8.0545 11.7606 8.30187 11.3091 8.74352C10.8575 9.18517 10.5967 9.78602 10.5825 10.4175H8.0825C8.0825 7.70625 10.2887 5.5 13 5.5C15.7113 5.5 17.9175 7.70625 17.9175 10.4175C17.9175 12.4137 16.4437 13.605 15.47 14.3937Z" fill="#2C6975" fill-opacity="0.8"/>
</svg>
