<svg width="22" height="22" viewBox="0 0 22 22" fill="none" xmlns="http://www.w3.org/2000/svg">
<path fill-rule="evenodd" clip-rule="evenodd" d="M11 0.916656C5.43127 0.916656 0.916687 5.43124 0.916687 11C0.916687 16.5687 5.43127 21.0833 11 21.0833C16.5688 21.0833 21.0834 16.5687 21.0834 11C21.0834 5.43124 16.5688 0.916656 11 0.916656ZM10.5417 5.49999C10.2986 5.49999 10.0654 5.59657 9.89351 5.76848C9.7216 5.94038 9.62502 6.17354 9.62502 6.41666C9.62502 6.65977 9.7216 6.89293 9.89351 7.06484C10.0654 7.23675 10.2986 7.33332 10.5417 7.33332H11C11.2431 7.33332 11.4763 7.23675 11.6482 7.06484C11.8201 6.89293 11.9167 6.65977 11.9167 6.41666C11.9167 6.17354 11.8201 5.94038 11.6482 5.76848C11.4763 5.59657 11.2431 5.49999 11 5.49999H10.5417ZM9.16669 9.16666C8.92357 9.16666 8.69041 9.26323 8.51851 9.43514C8.3466 9.60705 8.25002 9.84021 8.25002 10.0833C8.25002 10.3264 8.3466 10.5596 8.51851 10.7315C8.69041 10.9034 8.92357 11 9.16669 11H10.0834V13.75H9.16669C8.92357 13.75 8.69041 13.8466 8.51851 14.0185C8.3466 14.1904 8.25002 14.4235 8.25002 14.6667C8.25002 14.9098 8.3466 15.1429 8.51851 15.3148C8.69041 15.4867 8.92357 15.5833 9.16669 15.5833H12.8334C13.0765 15.5833 13.3096 15.4867 13.4815 15.3148C13.6534 15.1429 13.75 14.9098 13.75 14.6667C13.75 14.4235 13.6534 14.1904 13.4815 14.0185C13.3096 13.8466 13.0765 13.75 12.8334 13.75H11.9167V10.0833C11.9167 9.84021 11.8201 9.60705 11.6482 9.43514C11.4763 9.26323 11.2431 9.16666 11 9.16666H9.16669Z" fill="#444444" fill-opacity="0.8"/>
</svg>
