<svg width="26" height="22" viewBox="0 0 26 22" fill="none" xmlns="http://www.w3.org/2000/svg">
<path d="M11.75 6V4.75C11.75 3.75544 12.1451 2.80161 12.8483 2.09835C13.5516 1.39509 14.5054 1 15.5 1H20.5C21.4946 1 22.4484 1.39509 23.1517 2.09835C23.8549 2.80161 24.25 3.75544 24.25 4.75L24.25 17.25C24.25 18.2446 23.8549 19.1984 23.1517 19.9017C22.4484 20.6049 21.4946 21 20.5 21H15.5C14.5054 21 13.5516 20.6049 12.8483 19.9017C12.1451 19.1984 11.75 18.2446 11.75 17.25V16M6.75 6L1.75 11L6.75 6ZM1.75 11L6.75 16L1.75 11ZM1.75 11L19.25 11L1.75 11Z" stroke="#2C6975" stroke-width="2" stroke-linecap="round" stroke-linejoin="round"/>
</svg>
