<svg width="35" height="32" viewBox="0 0 35 32" fill="none" xmlns="http://www.w3.org/2000/svg">
<path d="M11.6667 9.40625C11.6667 8.56056 12.3523 7.875 13.198 7.875H24.7188C25.5645 7.875 26.2501 8.56056 26.2501 9.40625C26.2501 10.2519 25.5645 10.9375 24.7188 10.9375H13.198C12.3523 10.9375 11.6667 10.2519 11.6667 9.40625ZM11.6667 15.9688C11.6667 15.1231 12.3523 14.4375 13.198 14.4375H24.7188C25.5645 14.4375 26.2501 15.1231 26.2501 15.9688C26.2501 16.8144 25.5645 17.5 24.7188 17.5H13.198C12.3523 17.5 11.6667 16.8144 11.6667 15.9688ZM11.6667 22.5312C11.6667 21.6856 12.3523 21 13.198 21H24.7188C25.5645 21 26.2501 21.6856 26.2501 22.5312C26.2501 23.3769 25.5645 24.0625 24.7188 24.0625H13.198C12.3523 24.0625 11.6667 23.3769 11.6667 22.5312Z" fill="#2C6975"/>
<path d="M5.83325 22.5312C5.83325 21.6856 6.51882 21 7.3645 21H7.70478C8.55047 21 9.23603 21.6856 9.23603 22.5312C9.23603 23.3769 8.55047 24.0625 7.70478 24.0625H7.3645C6.51882 24.0625 5.83325 23.3769 5.83325 22.5312ZM5.83325 15.9688C5.83325 15.1231 6.51882 14.4375 7.3645 14.4375H7.70478C8.55047 14.4375 9.23603 15.1231 9.23603 15.9688C9.23603 16.8144 8.55047 17.5 7.70478 17.5H7.3645C6.51882 17.5 5.83325 16.8144 5.83325 15.9688ZM5.83325 9.40625C5.83325 8.56056 6.51882 7.875 7.3645 7.875H7.70478C8.55047 7.875 9.23603 8.56056 9.23603 9.40625C9.23603 10.2519 8.55047 10.9375 7.70478 10.9375H7.3645C6.51882 10.9375 5.83325 10.2519 5.83325 9.40625Z" fill="#2C6975"/>
</svg>
