<svg width="28" height="23" viewBox="0 0 28 23" fill="none" xmlns="http://www.w3.org/2000/svg">
<g clip-path="url(#clip0_2_93)">
<path d="M26.9501 0H18.5501C17.9733 0 17.1655 0.3346 16.7581 0.742L6.34349 11.1566C6.14711 11.3539 6.03687 11.6209 6.03687 11.8993C6.03687 12.1777 6.14711 12.4447 6.34349 12.642L15.3581 21.6566C15.5554 21.853 15.8224 21.9632 16.1008 21.9632C16.3792 21.9632 16.6462 21.853 16.8435 21.6566L27.2581 11.242C27.6669 10.8332 28.0001 10.0268 28.0001 9.45V1.05C27.9993 0.77175 27.8885 0.505107 27.6917 0.308354C27.495 0.111601 27.2283 0.000739048 26.9501 0V0ZM21.7001 8.4C21.4242 8.39991 21.1511 8.34548 20.8962 8.23983C20.6414 8.13417 20.4099 7.97936 20.2149 7.78422C20.0199 7.58909 19.8652 7.35746 19.7597 7.10256C19.6542 6.84765 19.6 6.57447 19.6001 6.2986C19.6002 6.02273 19.6546 5.74958 19.7603 5.49475C19.8659 5.23992 20.0207 5.00839 20.2159 4.81339C20.411 4.61838 20.6426 4.46372 20.8975 4.35824C21.1524 4.25275 21.4256 4.19851 21.7015 4.1986C22.2586 4.19879 22.7929 4.42029 23.1867 4.81438C23.5805 5.20846 23.8017 5.74286 23.8015 6.3C23.8013 6.85714 23.5798 7.39139 23.1857 7.78521C22.7916 8.17904 22.2572 8.40019 21.7001 8.4Z" fill="#1F3B66"/>
<path d="M2.79999 11.9L14.7 0H12.95C12.3732 0 11.5654 0.3346 11.158 0.742L0.743388 11.1566C0.547013 11.3539 0.436768 11.6209 0.436768 11.8993C0.436768 12.1777 0.547013 12.4447 0.743388 12.642L9.75799 21.6566C9.95528 21.853 10.2223 21.9632 10.5007 21.9632C10.7791 21.9632 11.0461 21.853 11.2434 21.6566L11.9014 20.9986L2.80139 11.8986L2.79999 11.9Z" fill="#1F3B66"/>
</g>
<defs>
<clipPath id="clip0_2_93">
<rect width="28" height="22.4" fill="white"/>
</clipPath>
</defs>
</svg>
