<svg width="32" height="32" viewBox="0 0 32 32" fill="none" xmlns="http://www.w3.org/2000/svg">
<path d="M6.66675 6.66668C6.66675 7.40001 7.26675 8.00001 8.00008 8.00001H24.0001C24.7334 8.00001 25.3334 7.40001 25.3334 6.66668C25.3334 5.93334 24.7334 5.33334 24.0001 5.33334H8.00008C7.26675 5.33334 6.66675 5.93334 6.66675 6.66668ZM9.88008 18.6667H12.0001V25.3333C12.0001 26.0667 12.6001 26.6667 13.3334 26.6667H18.6667C19.4001 26.6667 20.0001 26.0667 20.0001 25.3333V18.6667H22.1201C23.3067 18.6667 23.9067 17.2267 23.0667 16.3867L16.9467 10.2667C16.8234 10.1431 16.6769 10.045 16.5156 9.9781C16.3543 9.91119 16.1814 9.87675 16.0067 9.87675C15.8321 9.87675 15.6592 9.91119 15.4979 9.9781C15.3366 10.045 15.1901 10.1431 15.0667 10.2667L8.94675 16.3867C8.10675 17.2267 8.69341 18.6667 9.88008 18.6667Z" fill="#2C6975" fill-opacity="0.7"/>
</svg>
